<?xml version="1.0" standalone="no"?>
<!DOCTYPE svg PUBLIC "-//W3C//DTD SVG 1.1//EN" "http://www.w3.org/Graphics/SVG/1.1/DTD/svg11.dtd" >
<!--
2017-7-7: Created with FontForge (http://fontforge.org)
-->
<svg xmlns="http://www.w3.org/2000/svg" xmlns:xlink="http://www.w3.org/1999/xlink" version="1.1">
<metadata>
Created by FontForge 20170731 at Wed Feb 13 22:57:37 2019
 By AVET
Copyright (c) 2017, Developer
</metadata>
<defs>
<font id="iconFont" horiz-adv-x="1000" >
  <font-face 
    font-family="iconFont"
    font-weight="400"
    font-stretch="normal"
    units-per-em="1000"
    panose-1="2 0 5 3 0 0 0 0 0 0"
    ascent="800"
    descent="-200"
    bbox="-0.000976562 -200.002 1625 800"
    underline-thickness="50"
    underline-position="-100"
    unicode-range="U+E000-E017"
  />
    <missing-glyph />
    <glyph glyph-name="facebook" unicode="&#xe000;" 
d="M368 396h52v48c0 22 0 54 16 76s40 36 78 36c64 0 90 -10 90 -10l-12 -74s-20 6 -40 6s-38 -8 -38 -26v-56h80l-6 -72h-74v-252h-94v252h-50v72h-2z" />
    <glyph glyph-name="googleplus" unicode="&#xe001;" 
d="M720 350v-48h-58v-58h-48v58h-58v48h58v58h48v-58h58zM502 278c40 -28 52 -54 52 -100c0 -54 -52 -108 -148 -108c-84 0 -154 34 -154 88s64 108 148 108h26c-10 12 -20 26 -20 42c0 10 4 20 8 28h-14c-68 0 -114 50 -114 110c0 58 62 110 130 110h150l-34 -24h-48
c32 -12 48 -48 48 -86c0 -32 -18 -58 -42 -78s-28 -28 -28 -44c0 -12 26 -36 40 -46zM420 354c40 -2 66 40 58 90c-6 50 -44 90 -82 92s-64 -38 -58 -88s44 -92 82 -94zM406 96c80 0 110 34 110 78c0 6 0 10 -2 16c-6 24 -28 36 -60 58c-12 4 -24 6 -38 6
c-58 0 -110 -34 -110 -78s42 -80 100 -80z" />
    <glyph glyph-name="instagram" unicode="&#xe002;" 
d="M682 166h-4v198h-72c6 -16 10 -32 10 -50c0 -72 -58 -132 -132 -132c-72 0 -132 58 -132 132c0 18 4 34 10 50h-72v-198c0 -26 20 -46 46 -46h300c26 0 46 20 46 46zM416 364c-10 -14 -16 -32 -16 -50c0 -48 38 -86 86 -86s86 38 86 86c0 18 -6 36 -16 50
c-16 22 -42 36 -70 36c-30 0 -54 -14 -70 -36zM662 502h-72v-82h82v72v10h-10zM634 558c52 0 94 -42 94 -94v-100v-198c0 -52 -42 -94 -94 -94h-298c-52 0 -94 42 -94 94v198v100c0 52 42 94 94 94h298z" />
    <glyph glyph-name="linkedin" unicode="&#xe003;" 
d="M728 110h-108v156c0 42 -16 70 -54 70c-28 0 -44 -18 -52 -38c-2 -6 -2 -16 -2 -24v-164h-106s2 278 0 304h106v-48c6 20 40 50 94 50c68 0 120 -44 120 -138v-168h2zM300 452c-34 0 -58 24 -58 52c0 30 22 52 58 52c34 0 56 -22 58 -52c0 -28 -22 -52 -58 -52zM254 110
v304h94v-304h-94z" />
    <glyph glyph-name="pinterest" unicode="&#xe004;" 
d="M486 558c134 0 240 -104 240 -240s-108 -244 -242 -244c-24 0 -46 4 -68 10c8 14 18 34 24 52c4 10 18 66 18 66c10 -16 34 -30 60 -30c80 0 132 70 132 166c0 72 -62 140 -154 140c-116 0 -174 -82 -174 -152c0 -40 16 -78 50 -92c6 -2 10 0 12 6c0 4 2 16 4 20
c2 6 0 8 -4 14c-10 12 -16 26 -16 48c0 62 46 116 120 116c66 0 102 -40 102 -94c0 -70 -32 -130 -78 -130c-26 0 -44 20 -38 46c8 30 22 64 22 86c0 20 -10 36 -32 36c-26 0 -46 -26 -46 -62c0 -22 8 -38 8 -38s-28 -112 -32 -132c-4 -18 -4 -40 -4 -56
c-86 38 -146 122 -146 222c0 134 108 242 242 242z" />
    <glyph glyph-name="twitter" unicode="&#xe005;" 
d="M730 442c-14 -20 -30 -38 -50 -54v-12c0 -132 -100 -284 -284 -282c-58 0 -110 16 -154 44c8 -2 16 -2 24 -2c46 0 90 16 124 42c-44 2 -82 30 -94 70c6 -2 12 -2 18 -2c8 0 18 2 26 4c-46 10 -80 50 -80 98v2c14 -6 30 -12 46 -12c-26 18 -44 50 -44 84c0 18 6 36 14 50
c50 -60 124 -100 206 -104c-2 6 -2 14 -2 22c0 56 44 100 100 100c28 0 54 -12 72 -32c24 4 44 12 64 24c-8 -24 -24 -44 -44 -56c20 2 40 8 58 16z" />
    <glyph glyph-name="vimeo" unicode="&#xe006;" 
d="M728 416c-2 -48 -36 -112 -100 -194c-66 -86 -122 -128 -168 -128c-28 0 -52 26 -72 78c-14 48 -26 96 -40 144c-14 52 -30 78 -46 78c-4 0 -16 -8 -38 -22l-20 28c24 22 48 42 70 64c32 28 56 42 72 44c38 4 60 -22 70 -78c10 -60 16 -96 20 -112c10 -50 22 -74 36 -74
c10 0 26 16 46 48s32 56 32 74c2 28 -8 42 -32 42c-12 0 -24 -2 -36 -8c24 78 70 116 138 114c48 -4 72 -36 68 -98z" />
    <glyph glyph-name="youtube" unicode="&#xe007;" 
d="M730 228c0 -84 -84 -84 -86 -86h-318c-84 0 -84 84 -84 84v174c0 84 84 84 84 84h320c84 0 84 -84 84 -84v-172zM580 314l-160 92v-186z" />
    <glyph glyph-name="arrow-down" unicode="&#xe008;" horiz-adv-x="1654" 
d="M843.75 -168.75l-812.5 828.125l109.375 109.375l703.125 -703.125l671.875 703.125l109.375 -109.375z" />
    <glyph glyph-name="arrow-left" unicode="&#xe009;" horiz-adv-x="476" 
d="M405.128 -184.615l-384.615 466.667c-12.8203 15.3838 -12.8203 35.8965 0 48.7178l384.615 469.23l61.5391 -51.2822l-366.667 -441.025l364.103 -443.59z" />
    <glyph glyph-name="arrow-right" unicode="&#xe00a;" horiz-adv-x="492" 
d="M82.0518 -184.615l-58.9746 48.7178l364.103 443.59l-366.667 441.025l61.5391 51.2822l384.615 -466.667c12.8203 -15.3848 12.8203 -35.8975 0 -48.7178z" />
    <glyph glyph-name="arrow-right-2" unicode="&#xe00b;" horiz-adv-x="542" 
d="M65.2627 747.368l-60.9414 -50.1875l327.09 -397.181l-327.09 -397.181l60.9414 -50.1875l60.9424 -50.1875l368.421 447.368l41.3311 50.1875l-41.3311 50.1875l-368.421 447.368z" />
    <glyph glyph-name="chat" unicode="&#xe00c;" horiz-adv-x="1222" 
d="M423.913 210.869c17.3916 0 30.4346 -13.043 30.4346 -32.6084c0 -17.3916 -15.2168 -30.4346 -30.4346 -30.4346h-41.3047l-208.695 -208.695c-6.52148 -6.52246 -13.0439 -8.69629 -21.7393 -8.69629c-4.34766 0 -6.52148 0 -10.8691 2.17383
c-10.8701 4.34766 -17.3916 15.2178 -17.3916 28.2607v189.131h-54.3477c-36.957 0 -69.5654 32.6084 -69.5654 71.7393v506.521c0 39.1309 32.6084 71.7393 69.5654 71.7393h839.13c36.957 0 69.5654 -32.6084 69.5654 -71.7393v-193.479
c0 -17.3906 -15.2168 -30.4346 -30.4346 -30.4346c-17.3916 0 -30.4346 13.0439 -30.4346 30.4346v193.479c0 6.52148 -4.34766 10.8701 -10.8701 10.8701h-836.956c-6.52148 0 -10.8701 -4.34863 -10.8701 -10.8701v-506.521c0 -6.52148 4.34863 -10.8701 10.8701 -10.8701
h84.7822c15.2178 0 26.0869 -10.8691 28.2607 -26.0869v-150l165.218 167.392c6.52148 4.34766 13.043 8.69531 19.5654 8.69531h56.5215zM1150 430.435c36.9561 0 67.3916 -30.4346 67.3916 -69.5654v-336.956c0 -39.1309 -30.4355 -69.5654 -67.3916 -69.5654h-19.5654
v-126.087c0 -10.8691 -6.52148 -21.7393 -17.3906 -26.0869c-4.34863 -2.17383 -6.52246 -2.17383 -10.8701 -2.17383c-6.52148 0 -15.2178 2.17383 -19.5654 8.69531l-141.304 145.652h-352.174c-36.957 0 -67.3916 30.4346 -67.3916 69.5654v336.956
c0 39.1309 30.4346 69.5654 67.3916 69.5654h560.869zM1160.87 23.9131v336.956c0 6.52246 -4.34766 10.8701 -10.8691 10.8701h-560.869c-6.52246 0 -10.8701 -4.34766 -10.8701 -10.8701v-339.13c0 -6.52148 4.34766 -10.8701 10.8701 -10.8701h360.869
c8.69531 0 15.2178 -2.17383 19.5654 -6.52148h2.17383l102.174 -104.348v86.9561c2.17383 15.2178 13.043 26.0879 28.2607 26.0879h47.8262c6.52148 0 10.8691 4.34766 10.8691 10.8691zM847.826 202.174c0 18.0098 14.5996 32.6084 32.6084 32.6084
c18.0098 0 32.6094 -14.5986 32.6094 -32.6084c0 -18.0088 -14.5996 -32.6084 -32.6094 -32.6084c-18.0088 0 -32.6084 14.5996 -32.6084 32.6084zM782.608 571.739c0 -17.3916 -13.043 -32.6084 -30.4346 -32.6084h-528.261c-15.2178 0 -28.2607 15.2168 -28.2607 32.6084
c0 17.3916 13.043 32.6084 28.2607 32.6084h530.435c15.2178 0 28.2607 -15.2168 28.2607 -32.6084zM221.739 408.695h184.782c13.0439 0 26.0869 -15.2168 26.0869 -32.6084c0 -17.3916 -10.8691 -32.6084 -26.0869 -32.6084h-184.782
c-13.0439 0 -26.0869 15.2168 -26.0869 32.6084c0 17.3916 13.043 32.6084 26.0869 32.6084zM673.913 202.174c0 18.0098 14.5996 32.6084 32.6084 32.6084c18.0098 0 32.6094 -14.5986 32.6094 -32.6084c0 -18.0088 -14.5996 -32.6084 -32.6094 -32.6084
c-18.0088 0 -32.6084 14.5996 -32.6084 32.6084zM1000 202.174c0 18.0098 14.5996 32.6084 32.6084 32.6084c18.0098 0 32.6094 -14.5986 32.6094 -32.6084c0 -18.0088 -14.5996 -32.6084 -32.6094 -32.6084c-18.0088 0 -32.6084 14.5996 -32.6084 32.6084z" />
    <glyph glyph-name="check-solid" unicode="&#xe00d;" 
d="M472.284 -19.4219c-25.9922 -26.4639 -60.2061 -39.8086 -94.4199 -39.8086c-34.1025 0 -68.2061 13.3447 -94.3105 39.8086l-244.383 248.579c-52.209 53.04 -52.209 139.104 -0.111328 192.145c51.9873 53.1533 136.633 53.1533 188.73 0.113281l150.074 -152.562
l394.235 401.367c52.208 53.04 136.739 53.04 188.839 0c52.0996 -53.1533 52.0996 -139.218 -0.107422 -192.258z" />
    <glyph glyph-name="mail" unicode="&#xe00e;" horiz-adv-x="1398" 
d="M1244.44 800c77.7783 0 144.444 -61.1113 150 -138.889v-722.223c0 -77.7773 -66.667 -138.889 -144.444 -138.889h-1105.56c-77.7773 0 -144.444 61.1113 -144.444 138.889v722.223c0 77.7773 66.667 138.889 144.444 138.889h1100zM144.444 744.444
c-22.2217 0 -38.8887 -5.55566 -55.5557 -16.667l611.111 -450l600 450c-11.1113 11.1113 -33.333 16.667 -50 16.667h-1105.56zM55.5557 -61.1113c0 -11.1113 5.55566 -27.7773 11.1113 -38.8887l438.889 450l-450 327.777v-16.666v-722.223zM66.667 -100
c5.55566 -16.667 16.666 -27.7773 27.7773 -27.7773zM1244.44 -144.444c16.667 0 27.7783 0 33.333 11.1113l-438.889 444.444l27.7783 27.7773l-172.223 -127.777l-166.667 122.222l22.2227 -22.2217l-444.444 -450c11.1113 0 27.7773 -5.55566 38.8887 -5.55566h1100z
M1333.33 -61.1113v722.223c0 5.55566 0 16.666 -5.55566 16.666l-444.444 -333.333l438.89 -444.444c5.55469 11.1113 11.1104 27.7773 11.1104 38.8887z" />
    <glyph glyph-name="search" unicode="&#xe00f;" 
d="M974.684 -130.38l-44.3037 -44.3037l-253.165 253.165c-69.6201 -56.9629 -158.228 -94.9375 -259.493 -94.9375c-221.52 0 -398.734 177.216 -398.734 398.734c0 221.52 183.544 398.734 405.063 398.734c221.519 0 398.734 -177.215 398.734 -398.734
c0 -101.266 -37.9746 -189.873 -101.267 -259.493zM82.2783 382.278c0 -189.873 158.228 -335.443 341.772 -335.443c183.544 0 335.443 151.899 335.443 335.443c0 183.545 -158.229 335.443 -341.772 335.443c-183.545 0 -335.443 -151.898 -335.443 -335.443z" />
    <glyph glyph-name="location" unicode="&#xe010;" horiz-adv-x="776" 
d="M346.656 -179.824c-292.384 411.404 -346.656 453.627 -346.656 604.824c0 207.107 172.98 375 386.363 375c213.384 0 386.364 -167.893 386.364 -375c0 -151.197 -54.2725 -193.42 -346.657 -604.824c-19.1875 -26.9023 -60.2285 -26.9004 -79.4141 0zM386.363 268.75
c88.9102 0 160.985 69.9551 160.985 156.25s-72.0752 156.25 -160.985 156.25c-88.9092 0 -160.984 -69.9551 -160.984 -156.25s72.0752 -156.25 160.984 -156.25z" />
    <glyph glyph-name="user-solid" unicode="&#xe011;" horiz-adv-x="880" 
d="M441.624 297.462c-137.056 0 -248.73 111.675 -248.73 248.731c0 137.056 111.675 248.73 248.73 248.73c137.057 0 248.731 -111.675 248.731 -248.73c0 -137.057 -111.675 -248.731 -248.731 -248.731zM614.213 236.548c142.132 0 258.884 -116.751 258.884 -258.883
v-81.2188c0 -50.7607 -40.6094 -91.3701 -91.3711 -91.3701h-680.203c-50.7607 0 -91.3701 40.6094 -91.3701 91.3701v81.2188c0 142.132 116.751 258.883 258.883 258.883h30.457c45.6855 -20.3037 91.3711 -30.4561 142.132 -30.4561
c50.7617 0 101.523 10.1523 142.132 30.4561h30.457z" />
    <glyph glyph-name="play" unicode="&#xe012;" 
d="M720.125 307.453l-344.263 283.623v-567.247zM84.6992 300c0 229.369 185.928 415.301 415.301 415.301c229.369 0 415.301 -185.928 415.301 -415.301c0 -229.369 -185.928 -415.301 -415.301 -415.301c-229.369 0 -415.301 185.928 -415.301 415.301zM2.73242 300
c0 -274.63 222.635 -497.268 497.268 -497.268c274.63 0 497.268 222.635 497.268 497.268c0 274.63 -222.635 497.268 -497.268 497.268c-274.63 0 -497.268 -222.635 -497.268 -497.268z" />
    <glyph glyph-name="add" unicode="&#xe013;" 
d="M890.909 645.454h109.091v-836.363h-872.728v127.272h-127.272v854.546h890.909v-145.455zM36.3633 -27.2725h90.9092v672.727h727.273v109.092h-818.183v-781.818zM963.637 -154.546v763.637h-72.7275h-727.272v-672.728v-90.9092h800zM763.637 245.454
c10.0537 0 18.1816 -8.12695 18.1816 -18.1816s-8.12793 -18.1816 -18.1816 -18.1816h-181.818v-181.818c0 -10.0547 -8.12793 -18.1816 -18.1816 -18.1816c-10.0547 0 -18.1826 8.12695 -18.1826 18.1816v181.818h-181.817c-10.0547 0 -18.1826 8.12695 -18.1826 18.1816
s8.12793 18.1816 18.1826 18.1816h181.817v181.818c0 10.0547 8.12793 18.1816 18.1826 18.1816c10.0537 0 18.1816 -8.12695 18.1816 -18.1816v-181.818h181.818z" />
    <glyph glyph-name="trash" unicode="&#xe014;" 
d="M916.94 656.086c15.4199 0 27.7549 -12.3359 27.7549 -27.7549c0 -15.4199 -12.335 -27.7559 -27.7549 -27.7559h-50.1641v-652.138c0 -81.8252 -66.6123 -148.438 -148.438 -148.438h-436.678c-81.8252 0 -148.438 66.6123 -148.438 148.438v652.138h-50.1641
c-15.4199 0 -27.7549 12.3359 -27.7549 27.7559c0 15.4189 12.335 27.7549 27.7549 27.7549h208.059v33.9219c0 60.6504 49.3428 109.992 109.992 109.992h197.779c60.6494 0 109.992 -49.3418 109.992 -109.992v-33.9219h208.059zM346.628 690.008v-33.9219h306.744
v33.9219c0 30.0166 -24.4658 54.4824 -54.4824 54.4824h-197.779c-30.0166 0 -54.4824 -24.4658 -54.4824 -54.4824zM811.267 -51.5625h0.205078v652.138h-622.738v-652.138c0 -51.1924 41.7354 -92.9277 92.9277 -92.9277h436.678
c51.1924 0 92.9277 41.7354 92.9277 92.9277zM500 -44.9834c-15.4189 0 -27.7549 12.541 -27.7549 27.96v490.338c0 15.4189 12.3359 27.7549 27.7549 27.7549s27.7549 -12.3359 27.7549 -27.7549v-490.543c0 -15.4199 -12.3359 -27.7549 -27.7549 -27.7549z
M318.873 -14.3506c-15.2139 0 -27.7549 12.3359 -27.7549 27.7549v429.482c0 15.4189 12.3359 27.7549 27.7549 27.7549c15.4199 0 27.7549 -12.3359 27.7549 -27.7549v-429.482c0 -15.4189 -12.335 -27.7549 -27.7549 -27.7549zM681.127 -14.3506
c-15.4199 0 -27.7549 12.3359 -27.7549 27.7549v429.482c0 15.4189 12.335 27.7549 27.7549 27.7549c15.4189 0 27.7549 -12.3359 27.7549 -27.7549v-429.482c0 -15.4189 -12.3359 -27.7549 -27.7549 -27.7549z" />
    <glyph glyph-name="edit" unicode="&#xe015;" 
d="M935.227 735.221c41.7617 -41.5488 64.7734 -96.9463 64.7734 -155.967s-23.0117 -114.418 -64.7734 -156.18l-572.304 -572.091c-5.32617 -5.54004 -12.7842 -8.52344 -20.2412 -8.52344c-7.45801 0 -14.915 3.19629 -20.2422 8.52344l-230.541 230.541
l-29.6162 -219.035l151.705 20.4541c15.7676 2.13086 30.2559 -8.94824 32.3867 -24.7158s-8.94922 -30.2559 -24.7158 -32.3867l-189.206 -25.5684c-1.27832 -0.212891 -2.55664 -0.212891 -3.83496 -0.212891c-7.45703 0 -14.915 3.19629 -20.2412 8.52246
c-6.17969 6.17969 -9.375 15.1279 -8.09668 24.0771l42.4004 314.064c0.852539 6.17871 3.62207 11.9316 8.09668 16.4062l572.304 572.091c86.0801 86.293 226.067 86.293 312.146 0zM634.16 664.907l-522.232 -522.232l96.0938 -96.0938l522.232 522.232z
M342.895 -88.0791l522.232 522.232l-93.9629 93.9639l-522.233 -522.232zM905.185 475.276c24.0762 29.1904 37.2871 65.4121 37.2871 103.978c0 43.6787 -16.833 84.8018 -47.7275 115.483c-30.8955 30.6816 -71.8047 47.7275 -115.483 47.7275
c-38.3525 0 -74.7881 -13.21 -103.979 -37.2871z" />
    <glyph glyph-name="close" unicode="&#xe016;" 
d="M988.17 788.168c15.7734 -15.7754 15.7734 -41.3516 0 -57.125l-919.209 -919.209c-7.88867 -7.89062 -18.2266 -11.834 -28.5645 -11.834s-20.6777 3.94141 -28.5645 11.832c-15.7754 15.7754 -15.7754 41.3516 0 57.127l919.211 919.209
c15.7754 15.7754 41.3516 15.7754 57.127 0zM988.168 -131.043c15.7734 -15.7754 15.7734 -41.3516 0.00195312 -57.1289c-7.88477 -7.88672 -18.2246 -11.8301 -28.5625 -11.8301s-20.6777 3.94336 -28.5645 11.832l-919.211 919.211
c-15.7754 15.7754 -15.7754 41.3516 0 57.125c15.7734 15.7754 41.3516 15.7754 57.125 0z" />
    <glyph glyph-name="check" unicode="&#xe017;" 
d="M985.355 652.547c19.5254 -19.5273 19.5273 -51.1855 0 -70.7109l-634.387 -634.387c-19.5117 -19.5117 -51.1914 -19.5254 -70.7109 0l-265.613 265.609c-19.5273 19.5273 -19.5273 51.1836 0 70.709c19.5293 19.5254 51.1855 19.5273 70.7109 0l230.258 -230.258
l599.031 599.037c19.5293 19.5273 51.1855 19.5273 70.7109 0z" />
  </font>
</defs>
</svg>
